<?xml version="1.0" encoding="utf-8"?>
<!-- Generator: Adobe Illustrator 26.0.3, SVG Export Plug-In . SVG Version: 6.00 Build 0)  -->
<svg version="1.0" id="katman_1" xmlns="http://www.w3.org/2000/svg" xmlns:xlink="http://www.w3.org/1999/xlink" x="0px" y="0px"
	 viewBox="0 0 600 450" style="enable-background:new 0 0 600 450;" xml:space="preserve">
<style type="text/css">
	.st0{fill-rule:evenodd;clip-rule:evenodd;fill:#BD2548;}
</style>
<g>
	<polygon class="st0" points="127.7,191 130.9,176 64.8,176 56.1,217.2 48.6,250.3 116.6,250.3 120.1,234.6 82.4,234.6 85.8,218.5 
		117.7,218.5 121.1,203.5 89.3,203.5 91.9,191 127.7,191 	"/>
	<path class="st0" d="M183.3,218.4h23.2c1.2-5.9,2.1-11.9,2.6-17.8c0.7-6.3-2.6-12.4-8.2-15.2c-8.5-4.7-20.9-4.5-30.2-4.8
		c-12.8-0.5-28,1.2-36.1,12.6c-4.1,6.7-6.6,14.2-7.4,22c-1.1,8.6-5.5,23.2,2.4,30.3c5.9,5.4,18.9,7.1,26.5,7.1
		c7.7,0,15.3-0.7,22.9-2.2l19.9,24.3h31.1l-46.4-56.1L183.3,218.4z M179.7,218.9c-2.5,11.5-6,21.4-19.4,21.1
		c-13.4-0.3-9-14.6-7.8-23c1.8-12,6.4-24.5,20.2-23.5c13.8,1,9,15.7,6.9,25.3L179.7,218.9z"/>
	<polygon class="st0" points="307.3,184.3 300.1,217.2 292.9,250.3 320,250.3 334.6,184.3 307.3,184.3 	"/>
	<polygon class="st0" points="401,197.4 404.2,184.3 345,184.3 330.6,250.3 358,250.3 364.1,222 390.9,222 392,217.2 393.6,209.7 
		367,209.7 369.7,197.4 401,197.4 	"/>
	<path class="st0" d="M220.2,184.2h27.5l-10.3,47.1c-1.3,5.7,3.9,8.7,8.6,9.1c6,0.6,11.4-3.5,12.6-9.4l10.7-46.4h27.5L285.9,234
		c-4.7,12.9-15.5,17.8-27.5,19.2c-7.4,0.6-14.9,0.3-22.3-1.1l-24.4-29.6l8.2-38.2L220.2,184.2z"/>
	<path class="st0" d="M462.4,184.2h34.8l10.7,17.1l17.3-17.1h26.6l-34.8,30.7l22.8,35.3h-34l-11.2-20l-19.1,20h-40.6l-1.6-14.3
		h-28.1l-9.8,14.3h-19.1l46.4-66h33.2l6.4,53.5l22-20.3l-21.4-33.1L462.4,184.2z M413.9,221.7l14.9-22.4l2.7,22.4H413.9z"/>
</g>
</svg>
