<svg xmlns="http://www.w3.org/2000/svg" xmlns:xlink="http://www.w3.org/1999/xlink" version="1.1" x="0px" y="0px" viewBox="0 0 100 125" style="enable-background:new 0 0 100 100;" xml:space="preserve"><g><path d="M36.3,76.6c-0.2-1.4,0.5-3.1,2-3.5c1.5-0.5,3.5,0.1,4.5,1.5c0.6-0.1,1.5-0.1,1.9-0.1c-0.9-0.7-2.4-2.1-2.3-3.5   c0.2-2.1,0.6-5.1-0.3-6.3c-0.2-0.3-1-0.5-1.5,0.1c-0.9,1.3-1,4.2-1.1,5.9c-0.1,1.5-2.4,2-2.5,0c0-0.2,0.1-4.8-0.8-6   c-0.2-0.3-1.1-0.6-1.8,0.4c-0.6,0.8-1,2.4-1,5.5c0,3.3,0.8,13.6,10.9,15.5c-0.4-0.3-0.7-0.7-1-1.2C38.8,83.8,36.7,79.5,36.3,76.6z"/><path d="M47.7,81.9c0-0.6-0.1-2.4-1.9-3.7c-0.1-0.1-0.3-0.1-0.4,0c-0.6,0.4-1.1,1-1.4,1.6c-0.1,0.1,0,0.3,0.1,0.4   c1,0.9,2.2,1.5,3.5,1.8C47.6,82,47.7,82,47.7,81.9z"/><path d="M43.4,82c0,0.2,0,0.4,0.1,0.6c1.6,1.4,3.8,2,5.9,1.5c0-0.4,0.1-0.7,0.3-1.1c-0.4,0.1-3.8,0.3-6.2-1.9   C43.5,81.4,43.4,81.7,43.4,82z"/><path d="M49.9,73.2c-0.4,2-3.6,2.3-6.3,2.3c-1.4,0-2.2,0.9-2.2,1.8c0,0.3,0.4,1.6,2,1.5c1-1.5,2.8-2.5,4.7-2.5   c1.6,0,3.1,0.7,4.2,1.8c0.4-0.7,0.4-1.5-0.2-2.4c-0.5-0.8,0.4-1.1,0.8-0.6c0.9,1.2,1,2.6,0.1,3.9c0.3,0.5,0.6,1.1,0.7,1.7   c1.1-1,1.7-2.5,1.7-3.2c0-0.9,1-0.7,1,0c0,1.5-1.6,4.8-4.5,5.2c-1,0.2-1.5,1-1.4,1.8c0.1,1,1.2,2.2,3.8,2.1c1-0.1,3.2-0.8,4.7-2.9   c1.8-2.4,2.2-6,1.3-10.3H49.9z"/><path d="M51.6,61.5c-0.2-0.3-0.5-0.6-1.1-1c-0.2-0.1-0.4-0.1-0.4,0.1c-0.2,0.8-0.4,2.1-0.1,3.5c-0.9,2.6,0.3,5.1,1.7,6.2   c0.3,0.3,0.1,0.6,0.1,0.7c0,0-0.5,0.6-0.6,1.2H59c-0.2-0.5-0.4-1.1-0.5-1.3c-0.1-0.2-0.1-0.5,0.1-0.7c1.4-1.1,2.3-4,1.7-6.2   c0.3-1.4,0.1-2.6-0.1-3.5c-0.1-0.2-0.3-0.3-0.4-0.1c-0.5,0.4-0.8,0.7-1,1c-0.2,0.2-0.6,0.7-1.2,0.2c-1-0.9-3.7-1-4.7-0.1   C52.2,62,51.7,61.6,51.6,61.5z M57.4,63.8c0.2,0,0.4,0.3,0.4,0.7c0,0.4-0.2,0.7-0.4,0.7c-0.2,0-0.4-0.3-0.4-0.7   C57,64.1,57.1,63.8,57.4,63.8z M54.9,67.6c0-0.2-0.4-0.5-0.5-0.6c-0.2-0.2,0.1-0.4,0.5-0.5c0.1,0,0.2,0,0.3,0   c0.3,0.1,0.7,0.3,0.5,0.5c-0.1,0.1-0.5,0.4-0.5,0.6c0,0.7,0.7,1.7,2,0.9c0.3-0.3,0.8,0.3,0.3,0.6c-0.4,0.3-1.4,1.1-2.3,0.1   c-0.1-0.1-0.2-0.1-0.2,0c-0.9,0.9-1.9,0.2-2.3-0.1c-0.4-0.3,0-0.9,0.3-0.6C54.2,69.3,54.9,68.3,54.9,67.6z M52.5,65.2   c-0.2,0-0.4-0.3-0.4-0.7c0-0.4,0.2-0.7,0.4-0.7c0.2,0,0.4,0.3,0.4,0.7C52.9,64.9,52.7,65.2,52.5,65.2z"/><path d="M78.9,15c2.8-0.8,4.2-1.7,4.2-2.8c0-0.3-0.1-0.6-0.4-0.9c0.2-0.3,0.4-0.6,0.4-0.9c0-3.9-19.8-5.4-33-5.4s-33,1.4-33,5.4   c0,0.3,0.1,0.6,0.4,0.9c-0.2,0.3-0.4,0.6-0.4,0.9c0,1.1,1.3,2,4.2,2.8c0,14.2,7.6,29.3,17.5,35C30,54.1,21.1,68.7,21.1,85   c-2.8,0.8-4.2,1.7-4.2,2.8c0,0.3,0.1,0.6,0.4,0.9c-0.2,0.3-0.4,0.6-0.4,0.9c0,3.9,19.8,5.4,33,5.4s33-1.4,33-5.4   c0-0.3-0.1-0.6-0.4-0.9c0.2-0.3,0.4-0.6,0.4-0.9c0-1.1-1.3-2-4.2-2.8c0-14.6-8.3-29.4-17.5-35.1C70.1,44,78.9,29.7,78.9,15z    M78.8,14c0-1.1-0.1-2.3-0.2-3.5c2.2,0.6,3.4,1.2,3.4,1.8C82,12.3,82,13.1,78.8,14z M50,6.1c19.8,0,32,2.5,32,4.4   c0,0.1-0.1,0.2-0.1,0.3C77.6,7.9,61.4,6.9,50,6.9c-11.4,0-27.6,1-31.9,3.9C18,10.6,18,10.5,18,10.4C18,8.6,30.2,6.1,50,6.1z    M21.2,14c-3.1-0.9-3.2-1.6-3.2-1.7c0-0.6,1.2-1.2,3.4-1.8C21.2,11.6,21.2,12.8,21.2,14z M27.5,76.3c0-1.2,0.1-2.2,0.2-2.2   c0.1,0,0.2,0.9,0.2,2.2c1.2,0,2.1,0.1,2.1,0.2c0,0.1-0.9,0.2-2.1,0.2c0,1.2-0.1,2.1-0.2,2.1c-0.1,0-0.2-0.9-0.2-2.1   c-1.2,0-2.1-0.1-2.1-0.2C25.4,76.4,26.3,76.3,27.5,76.3z M33,86.2c0-1.7,0.2-3,0.3-3c0.2,0,0.3,1.3,0.4,3c1.7,0,3,0.2,3,0.3   c0,0.2-1.3,0.3-3,0.3c0,1.7-0.2,3-0.4,3c-0.2,0-0.3-1.3-0.3-3c-1.7,0-3-0.2-3-0.3C30,86.3,31.3,86.2,33,86.2z M21.2,86   c0,1.1,0.1,2.3,0.2,3.5C19.1,89,18,88.3,18,87.8C18,87.7,18,86.9,21.2,86z M50,93.9c-19.8,0-33-2.3-31.9-4.6   c4.3,2.8,20.5,3.9,31.9,3.9c11.4,0,27.6-1,31.9-3.9C82.5,91.7,69.8,93.9,50,93.9z M78.8,86c3.1,0.9,3.2,1.6,3.2,1.7   c0,0.6-1.2,1.2-3.4,1.8C78.8,88.4,78.8,87.2,78.8,86z M71.7,73.9c0-1.2,0.1-2.2,0.2-2.2s0.2,0.9,0.2,2.2c1.2,0,2.2,0.1,2.2,0.2   s-0.9,0.2-2.2,0.2c0,1.2-0.1,2.2-0.2,2.2s-0.2-1-0.2-2.2c-1.2,0-2.1-0.1-2.1-0.2S70.5,74,71.7,73.9z M67.8,83.3c0-1.7,0.2-3,0.3-3   c0.2,0,0.3,1.3,0.4,3c1.7,0,3,0.2,3,0.3c0,0.2-1.3,0.3-3,0.3c0,1.7-0.2,3-0.4,3c-0.2,0-0.3-1.3-0.3-3c-1.7,0-3-0.2-3-0.3   C64.9,83.4,66.2,83.3,67.8,83.3z M65.5,64.4c0,3.4-1.6,6.5-4.3,8.4c1,4.8,0.6,8.6-1.4,11.3c-1.8,2.4-4.7,4-8.7,2.7   c-0.9,0.5-2.6,1.2-4.7,0.5c-9.1,1-14-9.1-14-16.7c0-3.1,0.3-7.6,3.7-7.2c0-7.2,12.6-8.7,12.6-15.9c0-1.4,0.7-2.7,1.9-2.7   c1.3,0,1.6,1.9,1.6,2.7c0,8-11.4,9.1-11.4,15.9c3.9-0.9,2.6,7.1,2.5,7.6c-0.1,1,1.5,2.4,2.6,3.1c0.1,0.1,0.3,0.1,0.4,0.1   c1.8-0.3,2.4-0.8,2.6-1.2c0.1-0.2,0-0.4-0.1-0.5c-3.3-2.5-4.9-6.8-3.7-11.1c1.1-3.9,4.5-6.9,8.5-7.5C60,53.2,65.5,58.2,65.5,64.4z    M60.5,49.3c-3.4-1.6-5.6-4.1-5.4-9.7c0.1-5.5-6.3-6.7-7.1,0.4c-0.6,4.8-4.9,7.9-7.2,9c-0.3,0.1-0.6,0.3-1,0.4   C30.9,45,22.1,30.8,22.1,15c0-1.5,0.1-3.1,0.2-4.8C27.6,8.9,37.2,7.9,50,7.9s22.4,1.1,27.6,2.3c0.2,1.7,0.2,3.3,0.2,4.8   C77.9,29.3,68.9,43.7,60.5,49.3z"/><path d="M51.3,81.5c0,0.1,0.1,0.2,0.3,0.1c0.4-0.1,0.8-0.2,1.1-0.3c0.1,0,0.2-0.1,0.1-0.2c-0.4-1.9-1.7-3.4-4-3.8   C50.3,78.2,50.7,79.4,51.3,81.5z"/><path d="M47.9,85.3c-1.3,0-2.7-0.4-3.8-1.1c0.8,1.5,2.3,2.5,4.1,2.5c0.7,0,1.4-0.2,2.1-0.5c-0.3-0.3-0.5-0.7-0.7-1.1   C49,85.2,48.4,85.3,47.9,85.3z"/><path d="M46.9,77.5c-0.1,0-0.2,0.1-0.4,0.1c1.3,1,1.9,3.1,2.1,4.4c0,0.1,0.1,0.1,0.2,0.1c0.5,0,1-0.1,1.4-0.2   c0.1,0,0.1-0.1,0.1-0.2C50.2,79.8,48.8,78,46.9,77.5z"/></g><text x="0" y="115" fill="#000000" font-size="5px" font-weight="bold" font-family="'Helvetica Neue', Helvetica, Arial-Unicode, Arial, Sans-serif">Created by Adriano Vabeni</text><text x="0" y="120" fill="#000000" font-size="5px" font-weight="bold" font-family="'Helvetica Neue', Helvetica, Arial-Unicode, Arial, Sans-serif">from the Noun Project</text></svg>